<svg width="235" height="237" viewBox="0 0 235 237" fill="none" xmlns="http://www.w3.org/2000/svg">
<path d="M234.594 236.167C234.594 236.247 182.065 236.316 117.317 236.316C52.5686 236.316 0 236.247 0 236.167C0 236.087 52.5171 236.018 117.317 236.018C182.117 236.018 234.594 236.081 234.594 236.167Z" fill="#263238"/>
<path d="M156.333 188.044L92.5284 187.746C90.7036 187.738 88.8982 187.37 87.2154 186.664C85.5327 185.958 84.0054 184.928 82.7209 183.632C81.4364 182.335 80.4198 180.799 79.7291 179.11C79.0384 177.421 78.6872 175.612 78.6955 173.787L79.3705 13.8388C79.3788 12.0132 79.7465 10.2071 80.4527 8.52367C81.159 6.8402 82.1899 5.31233 83.4867 4.02729C84.7834 2.74224 86.3205 1.7252 88.0103 1.03422C89.7001 0.343241 91.5094 -0.0081396 93.335 0.000143087L157.134 0.297626C160.818 0.31428 164.345 1.79351 166.939 4.41007C169.533 7.02662 170.982 10.5663 170.967 14.2507L170.291 174.199C170.285 176.025 169.918 177.832 169.213 179.516C168.508 181.2 167.477 182.728 166.181 184.014C164.885 185.3 163.348 186.317 161.658 187.009C159.968 187.7 158.159 188.052 156.333 188.044Z" fill="#808080"/>
<path d="M157.042 5.81823L144.674 5.76102C144.271 5.76772 143.873 5.85388 143.503 6.01456C143.133 6.17524 142.799 6.4073 142.519 6.69744C142.238 6.98758 142.018 7.3301 141.871 7.7054C141.723 8.08071 141.651 8.48141 141.659 8.88459V11.1271C141.667 11.5306 141.595 11.9316 141.447 12.3072C141.3 12.6828 141.08 13.0258 140.8 13.3163C140.52 13.6069 140.185 13.8395 139.815 14.0008C139.446 14.1621 139.048 14.249 138.644 14.2564L114.531 14.142C113.716 14.1196 112.944 13.7751 112.383 13.1843C111.823 12.5934 111.519 11.8043 111.539 10.9898L111.562 8.75873C111.582 7.94431 111.278 7.15518 110.717 6.56431C110.156 5.97344 109.384 5.62902 108.57 5.60656H104.222L93.3924 5.55507C92.1109 5.54828 90.8407 5.79483 89.6548 6.28054C88.469 6.76625 87.3908 7.48154 86.4822 8.3853C85.5737 9.28906 84.8527 10.3635 84.3607 11.5468C83.8688 12.7301 83.6155 13.999 83.6155 15.2805L82.9576 171.339C82.9516 172.616 83.1974 173.883 83.6809 175.065C84.1645 176.248 84.8763 177.324 85.7758 178.231C86.6752 179.139 87.7446 179.86 88.9229 180.354C90.1012 180.848 91.3653 181.105 92.643 181.11L156.316 181.407C157.597 181.414 158.867 181.168 160.053 180.682C161.239 180.196 162.317 179.481 163.226 178.577C164.134 177.673 164.855 176.599 165.347 175.416C165.839 174.232 166.093 172.964 166.093 171.682L166.756 15.5608C166.758 14.2831 166.509 13.0176 166.022 11.8364C165.535 10.6552 164.82 9.58159 163.918 8.67684C163.016 7.77208 161.944 7.05394 160.764 6.56345C159.585 6.07296 158.32 5.81973 157.042 5.81823Z" fill="#FAFAFA"/>
<path d="M134.319 24.3423H117.895V27.3572H134.319V24.3423Z" fill="#808080"/>
<path d="M98.5068 49.7371C98.638 49.7402 98.7684 49.7575 98.8959 49.7885C99.0136 49.7574 99.1345 49.7401 99.2563 49.7371H98.5068Z" fill="#808080"/>
<path d="M103.009 41.4645C102.708 41.0477 102.341 40.6825 101.922 40.3833C101.046 39.7366 99.9851 39.3877 98.8958 39.3877C97.8066 39.3877 96.746 39.7366 95.8695 40.3833C95.4494 40.6825 95.0804 41.0476 94.7769 41.4645C94.4773 41.8559 94.2418 42.2923 94.0789 42.7575C93.7805 43.5645 93.689 44.4334 93.813 45.2849C93.9369 46.1363 94.2722 46.9431 94.7883 47.6316C94.8512 47.7174 94.9199 47.7918 94.9828 47.8661C95.195 47.183 95.601 46.5761 96.1514 46.1191C96.7018 45.6622 97.373 45.3747 98.0835 45.2918C97.6393 45.0977 97.262 44.7773 96.9986 44.3704C96.7351 43.9635 96.5972 43.4881 96.6018 43.0035C96.5794 42.6847 96.6229 42.3648 96.7295 42.0636C96.836 41.7624 97.0035 41.4863 97.2213 41.2526C97.4392 41.0189 97.7029 40.8326 97.9959 40.7051C98.2889 40.5777 98.6049 40.512 98.9245 40.512C99.244 40.512 99.5601 40.5777 99.8531 40.7051C100.146 40.8326 100.41 41.0189 100.628 41.2526C100.845 41.4863 101.013 41.7624 101.119 42.0636C101.226 42.3648 101.269 42.6847 101.247 43.0035C101.252 43.4874 101.114 43.9619 100.852 44.3686C100.589 44.7753 100.214 45.0962 99.7711 45.2918C100.474 45.3764 101.136 45.6646 101.677 46.121C102.218 46.5774 102.613 47.1821 102.815 47.8604L103.003 47.6316C103.519 46.9431 103.855 46.1363 103.979 45.2849C104.103 44.4334 104.011 43.5645 103.713 42.7575C103.546 42.2931 103.308 41.8571 103.009 41.4645Z" fill="#FAFAFA"/>
<path d="M103.998 42.6547C103.829 42.1592 103.582 41.6938 103.266 41.276C102.947 40.8366 102.561 40.4505 102.122 40.1318C101.19 39.4407 100.061 39.0676 98.9012 39.0676C97.7412 39.0676 96.612 39.4407 95.6804 40.1318C95.2395 40.4486 94.853 40.835 94.5362 41.276C94.2209 41.6949 93.972 42.16 93.7982 42.6547C93.4725 43.5718 93.3975 44.5593 93.5808 45.5151C93.7384 46.3485 94.0913 47.1327 94.6106 47.8034C95.3556 48.7698 96.4132 49.4472 97.6026 49.7199C97.9192 49.7958 98.2437 49.8342 98.5694 49.8343C98.6814 49.8493 98.7949 49.8493 98.9069 49.8343C98.7795 49.8033 98.649 49.786 98.5179 49.7828H99.2673C99.1456 49.7859 99.0246 49.8032 98.9069 49.8343C99.0189 49.8493 99.1324 49.8493 99.2444 49.8343C99.5701 49.8342 99.8946 49.7958 100.211 49.7199C101.399 49.4469 102.455 48.7694 103.198 47.8034C103.721 47.1346 104.076 46.3498 104.233 45.5151C104.413 44.5579 104.332 43.5697 103.998 42.6547ZM103.947 45.4579C103.803 46.2581 103.472 47.0129 102.98 47.6604L102.791 47.8892C102.59 47.2109 102.194 46.6062 101.654 46.1498C101.113 45.6934 100.45 45.4052 99.7479 45.3206C100.191 45.125 100.566 44.8041 100.828 44.3974C101.091 43.9907 101.228 43.5162 101.224 43.0323C101.246 42.7135 101.203 42.3936 101.096 42.0924C100.99 41.7912 100.822 41.5151 100.604 41.2814C100.386 41.0477 100.123 40.8614 99.8298 40.7339C99.5368 40.6065 99.2207 40.5408 98.9012 40.5408C98.5817 40.5408 98.2656 40.6065 97.9726 40.7339C97.6796 40.8614 97.416 41.0477 97.1981 41.2814C96.9802 41.5151 96.8128 41.7912 96.7062 42.0924C96.5996 42.3936 96.5561 42.7135 96.5785 43.0323C96.5739 43.517 96.7119 43.9923 96.9753 44.3992C97.2388 44.8061 97.6161 45.1265 98.0602 45.3206C97.3497 45.4035 96.6785 45.6909 96.1281 46.1479C95.5777 46.6049 95.1718 47.2118 94.9595 47.8949C94.8966 47.8206 94.828 47.7462 94.765 47.6604C94.2489 46.9719 93.9136 46.1651 93.7897 45.3137C93.6658 44.4622 93.7572 43.5933 94.0556 42.7863C94.2185 42.3211 94.4541 41.8847 94.7536 41.4933C95.0571 41.0764 95.4261 40.7113 95.8463 40.4121C96.7228 39.7654 97.7833 39.4165 98.8726 39.4165C99.9618 39.4165 101.022 39.7654 101.899 40.4121C102.317 40.7113 102.684 41.0765 102.986 41.4933C103.285 41.8859 103.522 42.3219 103.69 42.7863C104.01 43.6384 104.099 44.5602 103.947 45.4579Z" fill="#808080"/>
<path d="M160.703 54.5539C160.703 54.5539 160.869 54.5539 161.178 54.4909C161.636 54.3962 162.059 54.1741 162.397 53.8502C162.668 53.5879 162.877 53.2685 163.01 52.9153C163.142 52.5621 163.195 52.1838 163.163 51.8079C163.163 50.8983 163.163 49.8514 163.163 48.6786C163.163 46.3216 163.163 43.444 163.135 40.0974C163.135 39.2621 163.135 38.3811 163.135 37.5001C163.158 37.0561 163.059 36.6142 162.848 36.2227C162.637 35.8313 162.323 35.5053 161.939 35.2804C161.149 34.7827 160.12 35.0001 159.13 34.9543H156.052L90.2628 35.0001C89.8878 35.0016 89.5185 35.0921 89.1854 35.2641C88.8522 35.4362 88.5646 35.6849 88.3463 35.9898C88.1287 36.2946 87.9892 36.6482 87.9401 37.0196C87.9109 37.4002 87.9013 37.7821 87.9115 38.1637V52.1168C87.9281 52.4701 88.0242 52.8151 88.1925 53.1261C88.3609 53.4371 88.5973 53.7061 88.8841 53.9131C89.1672 54.1199 89.4941 54.2589 89.8395 54.3193C90.2001 54.3619 90.5636 54.3752 90.9264 54.3594H103.89L133.461 54.3937L153.392 54.4452L158.815 54.4738H160.223C160.543 54.4738 160.703 54.4738 160.703 54.4738H160.223H158.815L153.392 54.5081L133.461 54.5596L103.89 54.5939H90.9264C90.5444 54.6068 90.162 54.5915 89.7822 54.5481C89.1863 54.4412 88.6444 54.135 88.2453 53.6798C87.8462 53.2245 87.6135 52.6472 87.5854 52.0424C87.5854 49.0104 87.5854 45.9288 87.5854 42.7976V38.0722C87.5854 37.6717 87.5854 37.2884 87.5854 36.8594C87.6476 36.4468 87.8064 36.0548 88.0488 35.7152C88.2959 35.3632 88.6238 35.0755 89.0051 34.8764C89.3864 34.6773 89.8098 34.5726 90.2399 34.571L156.029 34.6168H160.606C161.108 34.5979 161.605 34.7251 162.036 34.9829C162.45 35.2278 162.788 35.5811 163.015 36.0047C163.242 36.4282 163.349 36.9058 163.323 37.3857C163.323 38.2781 163.323 39.1477 163.323 39.9829C163.323 43.3239 163.323 46.2015 163.295 48.5642C163.295 49.7369 163.295 50.7838 163.295 51.6935C163.321 52.0817 163.26 52.4708 163.118 52.8328C162.976 53.1949 162.755 53.5209 162.471 53.7873C162.12 54.1114 161.683 54.3278 161.212 54.4109C161.051 54.4834 160.879 54.5316 160.703 54.5539Z" fill="#808080"/>
<path d="M127.672 39.9714H109.09V41.3673H127.672V39.9714Z" fill="#808080"/>
<path d="M141.642 47.8435H109.09V49.2394H141.642V47.8435Z" fill="#808080"/>
<path d="M156.264 43.8103H109.09V45.2062H156.264V43.8103Z" fill="#808080"/>
<path d="M98.5068 99.0276C98.7586 99.0619 98.8959 99.0619 98.8959 99.0848C99.0136 99.0536 99.1345 99.0364 99.2563 99.0333L98.5068 99.0276Z" fill="#808080"/>
<path d="M103.009 90.7609C102.709 90.3428 102.342 89.9774 101.922 89.6797C101.046 89.033 99.9851 88.6841 98.8958 88.6841C97.8066 88.6841 96.746 89.033 95.8695 89.6797C95.0502 90.2758 94.4269 91.1022 94.0789 92.0538C93.7805 92.8609 93.689 93.7298 93.813 94.5812C93.9369 95.4327 94.2722 96.2395 94.7883 96.928L94.9828 97.1625C95.1931 96.4783 95.5985 95.8702 96.1492 95.4129C96.7 94.9557 97.3722 94.669 98.0835 94.5882C97.6393 94.3941 97.262 94.0737 96.9986 93.6668C96.7351 93.2599 96.5972 92.7845 96.6018 92.2998C96.5794 91.9811 96.6229 91.6612 96.7295 91.36C96.836 91.0588 97.0035 90.7827 97.2213 90.549C97.4392 90.3153 97.7029 90.129 97.9959 90.0015C98.2889 89.8741 98.6049 89.8083 98.9245 89.8083C99.244 89.8083 99.5601 89.8741 99.8531 90.0015C100.146 90.129 100.41 90.3153 100.628 90.549C100.845 90.7827 101.013 91.0588 101.119 91.36C101.226 91.6612 101.269 91.9811 101.247 92.2998C101.251 92.7836 101.113 93.2579 100.851 93.6644C100.589 94.0709 100.213 94.392 99.7711 94.5882C100.473 94.6716 101.136 94.9588 101.676 95.4142C102.217 95.8696 102.613 96.4734 102.815 97.1511L103.003 96.928C103.519 96.2395 103.855 95.4327 103.979 94.5812C104.103 93.7298 104.011 92.8609 103.713 92.0538C103.546 91.5895 103.308 91.1535 103.009 90.7609Z" fill="#FAFAFA"/>
<path d="M103.998 91.9509C103.831 91.4529 103.583 90.9853 103.266 90.5665C102.947 90.1272 102.561 89.741 102.122 89.4223C101.19 88.7313 100.061 88.3582 98.9011 88.3582C97.7412 88.3582 96.612 88.7313 95.6803 89.4223C94.8166 90.0641 94.1601 90.9453 93.7924 91.9566C93.4659 92.8736 93.3909 93.8613 93.5751 94.8171C93.7324 95.6506 94.0853 96.4348 94.6048 97.1054C95.3517 98.0685 96.4088 98.7436 97.5968 99.0161C97.9128 99.0961 98.2376 99.1365 98.5636 99.1363C98.6756 99.1512 98.7891 99.1512 98.9011 99.1363C98.9011 99.1363 98.7638 99.1363 98.5121 99.0791H99.2615C99.1398 99.0821 99.0189 99.0994 98.9011 99.1306C99.0131 99.1455 99.1267 99.1455 99.2387 99.1306C99.5647 99.1308 99.8894 99.0904 100.205 99.0104C101.392 98.7376 102.447 98.0624 103.192 97.0997C103.714 96.4302 104.069 95.6457 104.227 94.8113C104.411 93.8547 104.331 92.8663 103.998 91.9509ZM103.947 94.7541C103.806 95.5423 103.482 96.2867 103.003 96.928L102.814 97.1511C102.612 96.4735 102.217 95.8697 101.676 95.4142C101.135 94.9588 100.473 94.6717 99.7707 94.5882C100.213 94.3921 100.588 94.071 100.85 93.6645C101.113 93.2579 101.25 92.7836 101.247 92.2999C101.269 91.9812 101.226 91.6613 101.119 91.36C101.012 91.0588 100.845 90.7828 100.627 90.5491C100.409 90.3154 100.146 90.129 99.8526 90.0016C99.5596 89.8742 99.2435 89.8084 98.924 89.8084C98.6045 89.8084 98.2884 89.8742 97.9954 90.0016C97.7024 90.129 97.4388 90.3154 97.2209 90.5491C97.003 90.7828 96.8356 91.0588 96.729 91.36C96.6224 91.6613 96.579 91.9812 96.6014 92.2999C96.5967 92.7846 96.7347 93.26 96.9982 93.6668C97.2616 94.0737 97.6389 94.3941 98.0831 94.5882C97.3718 94.6691 96.6996 94.9557 96.1488 95.413C95.598 95.8703 95.1927 96.4783 94.9824 97.1626L94.7879 96.928C94.2718 96.2396 93.9364 95.4328 93.8125 94.5813C93.6886 93.7298 93.78 92.8609 94.0785 92.0539C94.4264 91.1023 95.0498 90.2758 95.8691 89.6798C96.7456 89.0331 97.8062 88.6841 98.8954 88.6841C99.9847 88.6841 101.045 89.0331 101.922 89.6798C102.341 89.9775 102.709 90.3429 103.009 90.761C103.308 91.1535 103.545 91.5895 103.712 92.0539C104.03 92.9169 104.111 93.8493 103.947 94.7541Z" fill="#808080"/>
<path d="M160.703 103.85C160.703 103.85 160.869 103.85 161.178 103.787C161.637 103.693 162.059 103.47 162.397 103.147C162.669 102.884 162.879 102.563 163.011 102.209C163.144 101.855 163.196 101.475 163.163 101.098C163.163 100.195 163.163 99.1477 163.163 97.9692C163.163 95.618 163.163 92.7347 163.135 89.388C163.135 88.5527 163.135 87.6717 163.135 86.7964C163.158 86.3517 163.059 85.9091 162.848 85.5167C162.637 85.1244 162.323 84.7973 161.939 84.571C161.15 84.0733 160.12 84.2907 159.13 84.245H156.052L90.2629 84.2964C89.8877 84.2965 89.5179 84.3864 89.1845 84.5586C88.8511 84.7307 88.5637 84.9802 88.3465 85.2861C88.1282 85.5885 87.9887 85.9404 87.9403 86.3102C87.9112 86.6908 87.9016 87.0727 87.9117 87.4543V101.436C87.9291 101.789 88.0255 102.134 88.1938 102.445C88.3621 102.756 88.598 103.025 88.8842 103.232C89.1673 103.439 89.4942 103.578 89.8396 103.639C90.2005 103.678 90.5637 103.692 90.9265 103.679H103.89L133.461 103.713L153.392 103.77H158.816H160.223C160.543 103.77 160.703 103.77 160.703 103.77C160.703 103.77 160.543 103.77 160.223 103.77H158.816L153.392 103.799L133.461 103.856L103.89 103.89H90.9265C90.5447 103.905 90.1623 103.892 89.7824 103.85C89.2019 103.746 88.6722 103.453 88.2759 103.016C87.8796 102.579 87.6389 102.024 87.5913 101.436C87.5913 98.404 87.5913 95.3224 87.5913 92.1912V87.4658C87.5913 87.0653 87.5913 86.6878 87.5913 86.253C87.6491 85.8304 87.8081 85.4281 88.0547 85.0802C88.3024 84.7288 88.6305 84.4417 89.0116 84.2427C89.3927 84.0437 89.8158 83.9385 90.2458 83.936L156.035 83.9818H160.612C160.977 83.9676 161.341 84.03 161.68 84.1648C162.02 84.2996 162.328 84.504 162.583 84.7647C162.839 85.0255 163.038 85.3368 163.166 85.6788C163.295 86.0209 163.35 86.386 163.329 86.7507C163.329 87.6431 163.329 88.507 163.329 89.3422C163.329 92.6832 163.329 95.5665 163.301 97.9234C163.301 99.1019 163.301 100.149 163.301 101.053C163.327 101.441 163.267 101.83 163.124 102.192C162.982 102.554 162.761 102.88 162.477 103.147C162.126 103.472 161.689 103.69 161.218 103.776C161.051 103.825 160.878 103.851 160.703 103.85Z" fill="#808080"/>
<path d="M127.672 89.2622H109.09V90.6581H127.672V89.2622Z" fill="#808080"/>
<path d="M141.642 97.1396H109.09V98.5355H141.642V97.1396Z" fill="#808080"/>
<path d="M156.264 93.1064H109.09V94.5023H156.264V93.1064Z" fill="#808080"/>
<path d="M87.9262 61.1099L87.8837 76.3215C87.8803 77.5632 88.884 78.5726 90.1257 78.5761L161.098 78.7743C162.34 78.7778 163.349 77.774 163.352 76.5323L163.395 61.3207C163.398 60.079 162.395 59.0696 161.153 59.0661L90.1808 58.8679C88.9391 58.8645 87.9297 59.8682 87.9262 61.1099Z" fill="#CCCCCC"/>
<path d="M127.859 64.0958L109.278 64.0439L109.274 65.4398L127.856 65.4917L127.859 64.0958Z" fill="#FAFAFA"/>
<path d="M141.808 72.0064L109.256 71.9155L109.252 73.3114L141.804 73.4023L141.808 72.0064Z" fill="#FAFAFA"/>
<path d="M156.441 68.0199L109.268 67.8882L109.264 69.2841L156.437 69.4158L156.441 68.0199Z" fill="#FAFAFA"/>
<path d="M99.9541 69.3308C100.393 69.1249 100.762 68.7954 101.016 68.3828C101.27 67.9702 101.398 67.4925 101.384 67.0081C101.401 66.6894 101.352 66.3707 101.24 66.0717C101.129 65.7727 100.957 65.4999 100.735 65.2702C100.514 65.0405 100.247 64.8587 99.9524 64.7363C99.6577 64.6138 99.341 64.5533 99.0219 64.5584C98.7028 64.5635 98.3881 64.6342 98.0975 64.766C97.8068 64.8978 97.5464 65.088 97.3323 65.3247C97.1182 65.5614 96.9551 65.8395 96.853 66.1419C96.751 66.4443 96.7122 66.7645 96.739 67.0825C96.7382 67.5723 96.8829 68.0514 97.1549 68.4588C97.4269 68.8663 97.8138 69.1837 98.2665 69.3708C97.535 69.4739 96.8507 69.7922 96.3006 70.2853C95.7506 70.7783 95.3595 71.4238 95.1772 72.1397C96.0312 73.0662 97.1872 73.6584 98.4381 73.8102H99.8683C101.133 73.6184 102.285 72.9715 103.106 71.9909C102.909 71.2821 102.503 70.6492 101.94 70.1747C101.378 69.7002 100.686 69.4061 99.9541 69.3308Z" fill="#FAFAFA"/>
<path d="M99.1762 73.8445C99.1762 73.8044 99.6453 73.8445 100.446 73.5928C101.142 73.3968 101.789 73.0577 102.345 72.5973C102.902 72.1369 103.357 71.5652 103.68 70.919C104.003 70.2727 104.188 69.5661 104.222 68.8444C104.256 68.1227 104.139 67.4017 103.879 66.7278C103.704 66.2656 103.459 65.8332 103.152 65.4463C102.838 65.0353 102.462 64.6763 102.037 64.3822C101.141 63.7568 100.07 63.4325 98.9774 63.4561C97.8852 63.4798 96.8288 63.8502 95.9611 64.5138C95.5484 64.8253 95.1874 65.1998 94.8913 65.6237C94.6006 66.0233 94.373 66.4651 94.2162 66.9337C93.9846 67.6185 93.8979 68.344 93.9615 69.0641C94.0251 69.7842 94.2376 70.4833 94.5856 71.1169C94.9336 71.7505 95.4095 72.3049 95.9831 72.7449C96.5567 73.1849 97.2154 73.5009 97.9176 73.6729C98.73 73.8674 99.2048 73.8273 99.1991 73.8674C98.7628 73.9116 98.3223 73.8845 97.8947 73.7873C96.705 73.5378 95.638 72.8851 94.8741 71.9395C94.3448 71.2866 93.9764 70.5184 93.7986 69.6969C93.5944 68.7463 93.6497 67.7583 93.9588 66.8365C94.3023 65.8199 94.9369 64.9267 95.7837 64.2678C96.6978 63.5603 97.8149 63.1651 98.9705 63.1404C100.126 63.1157 101.259 63.4628 102.203 64.1305C102.652 64.4464 103.048 64.8328 103.375 65.2747C103.698 65.6861 103.955 66.1455 104.136 66.6363C104.487 67.5467 104.584 68.5354 104.416 69.4967C104.243 70.5081 103.782 71.448 103.088 72.2039C102.394 72.9598 101.496 73.4996 100.503 73.7587C100.069 73.8621 99.6203 73.8912 99.1762 73.8445Z" fill="#FAFAFA"/>
<path d="M121.007 166.459C120.96 166.774 120.802 167.062 120.561 167.27C120.32 167.478 120.012 167.592 119.694 167.592C119.375 167.592 119.068 167.478 118.827 167.27C118.586 167.062 118.427 166.774 118.381 166.459C118.427 166.144 118.586 165.857 118.827 165.649C119.068 165.441 119.375 165.326 119.694 165.326C120.012 165.326 120.32 165.441 120.561 165.649C120.802 165.857 120.96 166.144 121.007 166.459Z" fill="#808080"/>
<path d="M125.08 166.476C125.117 166.744 125.072 167.017 124.949 167.258C124.827 167.5 124.634 167.698 124.396 167.827C124.158 167.955 123.887 168.008 123.618 167.978C123.349 167.948 123.096 167.837 122.892 167.659C122.688 167.481 122.544 167.245 122.478 166.983C122.412 166.72 122.428 166.444 122.523 166.191C122.619 165.938 122.789 165.72 123.012 165.566C123.235 165.413 123.499 165.331 123.77 165.332C124.095 165.31 124.416 165.418 124.662 165.633C124.907 165.847 125.058 166.151 125.08 166.476Z" fill="#808080"/>
<path d="M129.147 166.493C129.184 166.761 129.139 167.035 129.017 167.276C128.894 167.518 128.701 167.716 128.463 167.845C128.224 167.973 127.952 168.026 127.683 167.995C127.414 167.965 127.161 167.853 126.957 167.674C126.754 167.496 126.61 167.259 126.544 166.996C126.479 166.733 126.496 166.457 126.592 166.204C126.689 165.951 126.86 165.733 127.084 165.581C127.307 165.428 127.572 165.347 127.843 165.349C128.167 165.329 128.487 165.438 128.731 165.652C128.976 165.866 129.125 166.169 129.147 166.493Z" fill="#808080"/>
<path d="M98.5068 124.594C98.7586 124.628 98.8959 124.628 98.8959 124.651C98.8959 124.674 99.0217 124.651 99.2563 124.599L98.5068 124.594Z" fill="#808080"/>
<path d="M103.009 116.31C102.708 115.895 102.34 115.532 101.922 115.235C101.046 114.588 99.9851 114.239 98.8959 114.239C97.8066 114.239 96.746 114.588 95.8695 115.235C95.4496 115.532 95.0806 115.895 94.7769 116.31C94.4772 116.704 94.2417 117.142 94.0789 117.609C93.7805 118.416 93.689 119.285 93.813 120.136C93.9369 120.988 94.2722 121.794 94.7883 122.483C94.8512 122.563 94.9199 122.637 94.9828 122.712C95.1947 122.029 95.6006 121.422 96.1512 120.966C96.7018 120.51 97.3732 120.224 98.0835 120.143C97.6348 119.947 97.2544 119.622 96.9906 119.21C96.7268 118.797 96.5915 118.316 96.6018 117.826C96.5794 117.507 96.6229 117.188 96.7295 116.886C96.836 116.585 97.0035 116.309 97.2213 116.075C97.4392 115.842 97.7029 115.655 97.9959 115.528C98.2889 115.4 98.6049 115.335 98.9245 115.335C99.244 115.335 99.5601 115.4 99.8531 115.528C100.146 115.655 100.41 115.842 100.628 116.075C100.845 116.309 101.013 116.585 101.119 116.886C101.226 117.188 101.269 117.507 101.247 117.826C101.251 118.31 101.113 118.784 100.851 119.191C100.589 119.597 100.213 119.918 99.7711 120.114C100.473 120.198 101.136 120.485 101.676 120.941C102.217 121.396 102.613 122 102.815 122.677L103.003 122.454C103.517 121.765 103.851 120.958 103.975 120.107C104.099 119.256 104.009 118.388 103.713 117.58C103.543 117.124 103.306 116.696 103.009 116.31Z" fill="#FAFAFA"/>
<path d="M103.998 117.517C103.829 117.02 103.582 116.553 103.266 116.133C102.947 115.694 102.561 115.308 102.122 114.989C101.19 114.298 100.061 113.925 98.9011 113.925C97.7412 113.925 96.612 114.298 95.6803 114.989C94.8134 115.627 94.1562 116.51 93.7924 117.523C93.4659 118.44 93.3909 119.428 93.5751 120.383C93.7337 121.217 94.0865 122.001 94.6048 122.672C95.3517 123.635 96.4088 124.31 97.5968 124.583C97.9139 124.657 98.238 124.697 98.5636 124.703C98.6756 124.718 98.7891 124.718 98.9011 124.703C98.9011 124.703 98.7638 124.703 98.5121 124.645H99.2615C99.027 124.674 98.9011 124.674 98.9011 124.697C99.0131 124.712 99.1267 124.712 99.2387 124.697C99.5643 124.691 99.8884 124.651 100.205 124.577C101.392 124.304 102.447 123.629 103.192 122.666C103.714 121.997 104.069 121.212 104.227 120.378C104.411 119.421 104.331 118.433 103.998 117.517ZM103.947 120.315C103.808 121.105 103.484 121.852 103.003 122.494L102.814 122.718C102.612 122.04 102.217 121.436 101.676 120.981C101.135 120.525 100.473 120.238 99.7707 120.155C100.213 119.958 100.588 119.637 100.85 119.231C101.113 118.824 101.25 118.35 101.247 117.866C101.269 117.548 101.226 117.228 101.119 116.926C101.012 116.625 100.845 116.349 100.627 116.115C100.409 115.882 100.146 115.695 99.8526 115.568C99.5596 115.441 99.2435 115.375 98.924 115.375C98.6045 115.375 98.2884 115.441 97.9954 115.568C97.7024 115.695 97.4388 115.882 97.2209 116.115C97.003 116.349 96.8356 116.625 96.729 116.926C96.6224 117.228 96.579 117.548 96.6014 117.866C96.591 118.356 96.7264 118.837 96.9902 119.25C97.254 119.662 97.6343 119.987 98.0831 120.183C97.3727 120.264 96.7013 120.55 96.1508 121.007C95.6002 121.463 95.1942 122.069 94.9824 122.752C94.9194 122.678 94.8508 122.603 94.7879 122.523C94.2718 121.835 93.9364 121.028 93.8125 120.176C93.6886 119.325 93.78 118.456 94.0785 117.649C94.2412 117.182 94.4768 116.744 94.7764 116.35C95.0801 115.935 95.4492 115.572 95.8691 115.275C96.7456 114.628 97.8062 114.279 98.8954 114.279C99.9847 114.279 101.045 114.628 101.922 115.275C102.34 115.572 102.707 115.935 103.009 116.35C103.308 116.745 103.545 117.183 103.712 117.649C104.024 118.501 104.105 119.421 103.947 120.315Z" fill="#808080"/>
<path d="M160.703 129.417C160.703 129.417 160.869 129.416 161.178 129.354C161.636 129.259 162.059 129.037 162.397 128.713C162.669 128.45 162.878 128.13 163.011 127.775C163.144 127.421 163.196 127.042 163.163 126.665C163.163 125.755 163.163 124.714 163.163 123.535C163.163 121.179 163.163 118.301 163.135 114.954C163.135 114.119 163.135 113.238 163.135 112.363C163.158 111.918 163.058 111.475 162.848 111.083C162.637 110.691 162.323 110.364 161.939 110.137C161.149 109.64 160.12 109.857 159.13 109.811H156.052L90.2628 109.863C89.8873 109.861 89.517 109.951 89.1834 110.123C88.8497 110.295 88.5626 110.545 88.3463 110.852C88.1272 111.154 87.9876 111.506 87.9401 111.876C87.911 112.257 87.9015 112.639 87.9115 113.021V127.008C87.9281 127.362 88.0241 127.708 88.1924 128.02C88.3608 128.332 88.5972 128.602 88.8841 128.81C89.1672 129.017 89.4941 129.156 89.8395 129.216C90.2005 129.253 90.5636 129.266 90.9264 129.256H103.89L133.461 129.291L153.392 129.348L158.815 129.376H160.223C160.543 129.376 160.703 129.376 160.703 129.376H160.223H158.815H153.392L133.461 129.428L103.89 129.468H90.9264C90.5444 129.484 90.1618 129.469 89.7822 129.422C89.387 129.358 89.0125 129.201 88.6896 128.965C88.3621 128.729 88.0925 128.423 87.9012 128.068C87.7099 127.713 87.6019 127.319 87.5854 126.917C87.5854 123.865 87.5854 120.784 87.5854 117.672V112.946C87.5854 112.546 87.5854 112.168 87.5854 111.733C87.6432 111.311 87.8022 110.909 88.0488 110.561C88.2979 110.211 88.6263 109.925 89.0071 109.726C89.3879 109.527 89.8103 109.421 90.2399 109.417L156.029 109.468H160.606C161.108 109.455 161.603 109.581 162.036 109.834C162.45 110.08 162.788 110.435 163.015 110.859C163.242 111.284 163.348 111.762 163.323 112.243C163.323 113.135 163.323 113.999 163.323 114.834C163.323 118.175 163.323 121.053 163.295 123.415C163.295 124.594 163.295 125.635 163.295 126.545C163.321 126.933 163.261 127.322 163.119 127.684C162.976 128.046 162.755 128.372 162.471 128.638C162.12 128.964 161.683 129.182 161.212 129.268C161.051 129.342 160.879 129.392 160.703 129.417Z" fill="#808080"/>
<path d="M127.672 114.828H109.09V116.224H127.672V114.828Z" fill="#808080"/>
<path d="M141.642 122.706H109.09V124.102H141.642V122.706Z" fill="#808080"/>
<path d="M156.264 118.673H109.09V120.069H156.264V118.673Z" fill="#808080"/>
<path d="M98.5068 149.651C98.7586 149.68 98.8959 149.685 98.8959 149.708C98.8959 149.731 99.0217 149.68 99.2563 149.657L98.5068 149.651Z" fill="#808080"/>
<path d="M103.009 141.379C102.706 140.963 102.339 140.598 101.922 140.297C101.043 139.658 99.9831 139.314 98.8959 139.314C97.8086 139.314 96.7492 139.658 95.8695 140.297C95.4507 140.598 95.082 140.963 94.7769 141.379C94.4772 141.772 94.2417 142.21 94.0789 142.677C93.7805 143.484 93.689 144.353 93.813 145.205C93.9369 146.056 94.2722 146.863 94.7883 147.551C94.8512 147.632 94.9199 147.706 94.9828 147.78C95.1947 147.097 95.6006 146.491 96.1512 146.035C96.7018 145.579 97.3732 145.293 98.0835 145.212C97.6398 145.017 97.2629 144.696 96.9995 144.29C96.7362 143.883 96.5979 143.408 96.6018 142.923C96.5794 142.605 96.6229 142.285 96.7295 141.984C96.836 141.682 97.0035 141.406 97.2213 141.173C97.4392 140.939 97.7029 140.752 97.9959 140.625C98.2889 140.498 98.6049 140.432 98.9245 140.432C99.244 140.432 99.5601 140.498 99.8531 140.625C100.146 140.752 100.41 140.939 100.628 141.173C100.845 141.406 101.013 141.682 101.119 141.984C101.226 142.285 101.269 142.605 101.247 142.923C101.251 143.407 101.113 143.881 100.851 144.288C100.589 144.694 100.213 145.016 99.7711 145.212C100.473 145.294 101.136 145.581 101.677 146.037C102.218 146.492 102.614 147.097 102.815 147.775C102.878 147.7 102.94 147.632 103.003 147.546C103.486 146.906 103.809 146.161 103.947 145.372C104.111 144.469 104.03 143.539 103.713 142.677C103.546 142.211 103.308 141.773 103.009 141.379Z" fill="#FAFAFA"/>
<path d="M103.998 142.569C103.829 142.073 103.582 141.608 103.266 141.19C102.947 140.751 102.561 140.365 102.122 140.046C101.189 139.358 100.06 138.987 98.9012 138.987C97.7421 138.987 96.6134 139.358 95.6804 140.046C95.2395 140.363 94.853 140.749 94.5362 141.19C94.2209 141.609 93.972 142.074 93.7982 142.569C93.4725 143.486 93.3975 144.473 93.5808 145.429C93.7373 146.263 94.0903 147.047 94.6106 147.718C95.3556 148.684 96.4132 149.361 97.6026 149.634C97.9196 149.708 98.2437 149.749 98.5694 149.754C98.6814 149.769 98.7949 149.769 98.9069 149.754C98.9069 149.754 98.7696 149.726 98.5179 149.697H99.2673C99.0328 149.697 98.9069 149.697 98.9069 149.748C99.0189 149.763 99.1324 149.763 99.2444 149.748C99.5701 149.743 99.8942 149.703 100.211 149.628C101.209 149.388 102.117 148.866 102.827 148.125C103.537 147.383 104.019 146.454 104.216 145.446C104.405 144.485 104.33 143.491 103.998 142.569ZM103.947 145.372C103.809 146.161 103.485 146.906 103.003 147.546C102.94 147.632 102.877 147.7 102.814 147.775C102.613 147.097 102.218 146.492 101.677 146.037C101.136 145.581 100.473 145.295 99.7708 145.212C100.213 145.016 100.588 144.695 100.85 144.288C101.113 143.881 101.25 143.407 101.247 142.923C101.269 142.605 101.226 142.285 101.119 141.984C101.012 141.682 100.845 141.406 100.627 141.173C100.409 140.939 100.146 140.753 99.8527 140.625C99.5597 140.498 99.2436 140.432 98.9241 140.432C98.6046 140.432 98.2885 140.498 97.9955 140.625C97.7025 140.753 97.4388 140.939 97.221 141.173C97.0031 141.406 96.8357 141.682 96.7291 141.984C96.6225 142.285 96.579 142.605 96.6014 142.923C96.5975 143.408 96.7358 143.883 96.9992 144.29C97.2625 144.697 97.6394 145.017 98.0831 145.212C97.3714 145.29 96.6981 145.575 96.1454 146.03C95.5927 146.485 95.1846 147.091 94.971 147.775C94.9081 147.7 94.8394 147.626 94.7765 147.546C94.2604 146.857 93.925 146.051 93.8011 145.199C93.6772 144.348 93.7686 143.479 94.0671 142.672C94.2298 142.205 94.4654 141.767 94.765 141.373C95.0701 140.957 95.4389 140.593 95.8577 140.292C96.7374 139.653 97.7967 139.309 98.884 139.309C99.9713 139.309 101.031 139.653 101.91 140.292C102.727 140.893 103.35 141.72 103.701 142.672C104.023 143.534 104.108 144.466 103.947 145.372Z" fill="#808080"/>
<path d="M160.703 154.474C160.703 154.474 160.869 154.474 161.178 154.411C161.78 154.282 162.314 153.937 162.68 153.442C163.045 152.947 163.217 152.335 163.163 151.722C163.163 150.812 163.163 149.771 163.163 148.593C163.163 146.236 163.163 143.358 163.135 140.011C163.135 139.176 163.135 138.295 163.135 137.42C163.156 136.971 163.052 136.524 162.835 136.13C162.618 135.736 162.296 135.411 161.905 135.189C161.115 134.691 160.085 134.908 159.096 134.863H156.018L90.2285 134.908C89.8528 134.91 89.4829 135.001 89.1495 135.174C88.8161 135.347 88.529 135.597 88.312 135.904C88.0929 136.206 87.9532 136.558 87.9058 136.928C87.8766 137.309 87.8671 137.69 87.8772 138.072V152.065C87.8938 152.419 87.9898 152.763 88.1582 153.075C88.3266 153.386 88.563 153.655 88.8498 153.862C89.1324 154.07 89.4593 154.211 89.8051 154.273C90.1661 154.311 90.5294 154.323 90.8921 154.308H103.855L133.426 154.342L153.358 154.394L158.781 154.428H160.188H160.669C160.669 154.428 160.509 154.428 160.188 154.428H158.781L153.358 154.462L133.426 154.514L103.855 154.548H90.9264C90.5444 154.561 90.162 154.546 89.7822 154.502C89.3866 154.436 89.0122 154.277 88.6896 154.039C88.3622 153.805 88.0926 153.499 87.9013 153.145C87.7099 152.792 87.6019 152.399 87.5854 151.997C87.5854 148.965 87.5854 145.883 87.5854 142.752V138.026C87.5854 137.626 87.5854 137.248 87.5854 136.814C87.6432 136.391 87.8022 135.989 88.0488 135.641C88.2969 135.29 88.6251 135.003 89.0061 134.804C89.3871 134.605 89.8101 134.5 90.2399 134.497L156.029 134.548H160.606C161.108 134.535 161.603 134.661 162.036 134.914C162.45 135.16 162.789 135.514 163.016 135.939C163.243 136.363 163.349 136.842 163.323 137.323C163.323 138.215 163.323 139.079 163.323 139.914C163.323 143.255 163.323 146.133 163.295 148.495C163.295 149.674 163.295 150.715 163.295 151.625C163.321 152.013 163.26 152.402 163.118 152.764C162.976 153.126 162.755 153.452 162.471 153.719C162.121 154.045 161.684 154.262 161.212 154.342C161.05 154.412 160.879 154.456 160.703 154.474Z" fill="#808080"/>
<path d="M127.672 139.885H109.09V141.281H127.672V139.885Z" fill="#808080"/>
<path d="M141.642 147.758H109.09V149.153H141.642V147.758Z" fill="#808080"/>
<path d="M156.264 143.724H109.09V145.12H156.264V143.724Z" fill="#808080"/>
<path d="M160.926 64.3079C163.031 64.3079 164.736 62.6021 164.736 60.4978C164.736 58.3936 163.031 56.6877 160.926 56.6877C158.822 56.6877 157.116 58.3936 157.116 60.4978C157.116 62.6021 158.822 64.3079 160.926 64.3079Z" fill="#808080"/>
<path d="M159.056 60.1889L160.658 61.5962L162.791 59.3994" stroke="#FAFAFA" stroke-linecap="round" stroke-linejoin="round"/>
<path d="M55.3378 230.137L54.4053 235.555L62.7577 236.167L62.7863 230.841L55.3378 230.137Z" fill="#B3B3B3"/>
<path d="M59.102 230.211C59.0794 231.867 58.8877 233.515 58.53 235.131C58.4978 234.303 58.5476 233.473 58.6787 232.654C58.7382 231.828 58.88 231.01 59.102 230.211Z" fill="#B3B3B3"/>
<path d="M62.7576 235.578C62.3533 235.584 61.9493 235.554 61.5506 235.486L58.6501 235.166C57.5059 235.034 56.4876 234.897 55.7496 234.771C55.3468 234.725 54.9499 234.637 54.5654 234.508C54.9697 234.494 55.3743 234.523 55.7725 234.594L58.6787 234.92C59.8229 235.046 60.8354 235.189 61.5734 235.315C61.9762 235.361 62.3731 235.449 62.7576 235.578Z" fill="#B3B3B3"/>
<path d="M85.4863 233.095V228.232L76.3902 228.146L76.293 235.257L76.8651 235.297C79.3765 235.457 89.6396 235.949 91.3216 235.457C93.2037 234.908 85.4863 233.095 85.4863 233.095Z" fill="#B3B3B3"/>
<g opacity="0.38">
<path d="M79.6055 235.217C79.4775 234.448 79.07 233.754 78.4613 233.267C77.8643 232.781 77.1072 232.536 76.3389 232.58V235.126L79.6055 235.217Z" fill="#E6E6E6"/>
</g>
<g opacity="0.38">
<path d="M89.2508 234.113C89.2508 234.113 91.951 234.92 91.6077 235.366C91.2645 235.812 80.8755 235.703 76.2988 235.257V235.051L88.4155 235.274C88.4155 235.274 88.7244 234.159 89.2508 234.113Z" fill="#E6E6E6"/>
</g>
<path d="M76.1787 235.046H76.3332L76.7794 235.08L78.4327 235.166C79.8343 235.229 81.7622 235.292 83.8961 235.315C86.03 235.337 87.9579 235.315 89.3595 235.286L91.0128 235.234H91.4647C91.516 235.242 91.568 235.242 91.6192 235.234H91.0128H89.3595C87.9579 235.234 86.03 235.234 83.8961 235.234C81.7622 235.234 79.8343 235.16 78.4384 235.114L76.7851 235.063H76.3332L76.1787 235.046Z" fill="#B3B3B3"/>
<path d="M88.4325 235.417C88.5086 235.145 88.6161 234.882 88.7528 234.634C88.9212 234.405 89.1129 234.194 89.3249 234.004C89.0418 234.109 88.806 234.312 88.6613 234.576C88.4849 234.819 88.4036 235.119 88.4325 235.417Z" fill="#B3B3B3"/>
<path d="M85.7608 234.027C85.7608 234.027 85.9153 233.89 86.0526 233.684C86.1504 233.566 86.219 233.427 86.2528 233.278C86.2528 233.278 86.0926 233.415 85.9611 233.621C85.8295 233.827 85.738 234.01 85.7608 234.027Z" fill="#B3B3B3"/>
<path d="M85.0286 233.633C85.0286 233.633 85.1945 233.558 85.3547 233.421C85.5149 233.284 85.6236 233.152 85.6007 233.129C85.5778 233.106 85.4405 233.198 85.2804 233.341C85.1202 233.484 85.0115 233.587 85.0286 233.633Z" fill="#B3B3B3"/>
<path d="M84.5708 232.769C84.8836 232.837 85.2076 232.837 85.5205 232.769C85.5205 232.734 85.3088 232.706 85.0513 232.7C84.8881 232.688 84.7242 232.712 84.5708 232.769Z" fill="#B3B3B3"/>
<path d="M84.4165 232.162C84.5745 232.266 84.7594 232.322 84.9485 232.323C85.1417 232.36 85.3418 232.336 85.5206 232.254C85.3434 232.221 85.163 232.207 84.9829 232.214C84.7964 232.177 84.6066 232.16 84.4165 232.162Z" fill="#B3B3B3"/>
<path d="M86.0811 233.238C86.2705 233.268 86.4637 233.268 86.6531 233.238C86.8642 233.211 87.0727 233.167 87.2767 233.106C87.4001 233.072 87.5191 233.024 87.6314 232.963C87.6672 232.944 87.6988 232.918 87.7243 232.887C87.7498 232.855 87.7688 232.819 87.7801 232.78C87.7887 232.737 87.7852 232.692 87.7701 232.651C87.755 232.609 87.7288 232.573 87.6943 232.545C87.4728 232.432 87.2182 232.4 86.9755 232.455C86.7327 232.511 86.5173 232.65 86.3671 232.849C86.2731 232.959 86.2065 233.091 86.1726 233.232C86.1726 233.335 86.1726 233.392 86.1726 233.392C86.2307 233.211 86.3218 233.042 86.4415 232.894C86.5753 232.742 86.75 232.631 86.9449 232.574C87.1761 232.501 87.4266 232.522 87.6428 232.631C87.7344 232.7 87.6943 232.809 87.5914 232.872C87.4864 232.926 87.3773 232.972 87.2653 233.009C87.0675 233.075 86.8647 233.124 86.6589 233.158C86.3042 233.22 86.0811 233.22 86.0811 233.238Z" fill="#B3B3B3"/>
<path d="M86.2297 233.266C86.2297 233.266 86.327 233.129 86.3041 232.866C86.2848 232.712 86.2299 232.565 86.1439 232.437C86.0972 232.349 86.0282 232.274 85.944 232.221C85.8597 232.168 85.7629 232.138 85.6634 232.134C85.6336 232.139 85.6053 232.15 85.5799 232.167C85.5546 232.183 85.5328 232.205 85.5158 232.23C85.4987 232.255 85.4868 232.283 85.4807 232.313C85.4747 232.342 85.4745 232.373 85.4803 232.402C85.4926 232.495 85.5258 232.583 85.5776 232.66C85.6531 232.79 85.7433 232.911 85.8464 233.02C85.9373 233.125 86.0508 233.207 86.1783 233.261C86.1783 233.261 86.0638 233.152 85.9036 232.969C85.815 232.857 85.7346 232.738 85.6634 232.614C85.5833 232.488 85.5318 232.265 85.6634 232.242C85.795 232.219 85.9551 232.374 86.0467 232.494C86.1277 232.608 86.1824 232.739 86.2069 232.877C86.2267 233.006 86.2344 233.136 86.2297 233.266Z" fill="#B3B3B3"/>
<path d="M76.3901 232.557C76.3901 232.557 76.6476 232.557 77.0595 232.586C77.5939 232.655 78.0988 232.871 78.5183 233.209C78.9352 233.551 79.2483 234.003 79.4222 234.514C79.4887 234.726 79.5441 234.942 79.5881 235.16C79.5979 235.099 79.5979 235.038 79.5881 234.977C79.5722 234.81 79.5396 234.645 79.4908 234.485C79.3296 233.951 79.0129 233.477 78.5812 233.124C78.1476 232.77 77.617 232.557 77.0595 232.511C76.8941 232.493 76.7272 232.493 76.5618 232.511C76.5023 232.516 76.4441 232.532 76.3901 232.557Z" fill="#B3B3B3"/>
<path d="M77.3686 228.781C77.3005 229.401 77.268 230.023 77.2713 230.646C77.2364 231.269 77.2364 231.894 77.2713 232.517C77.3394 231.898 77.3719 231.275 77.3686 230.652C77.4035 230.029 77.4035 229.404 77.3686 228.781Z" fill="#B3B3B3"/>
<path d="M80.7554 234.342C81.1897 234.447 81.6359 234.495 82.0826 234.485C82.529 234.513 82.9772 234.483 83.4156 234.394C83.4156 234.359 82.8435 234.394 82.0883 234.394C81.3332 234.394 80.7611 234.308 80.7554 234.342Z" fill="#B3B3B3"/>
<path d="M78.9531 234.319C78.9531 234.319 78.9989 234.445 79.0561 234.582C79.1133 234.719 79.1476 234.84 79.182 234.84C79.2163 234.84 79.2277 234.697 79.182 234.536C79.1362 234.376 78.9932 234.296 78.9531 234.319Z" fill="#B3B3B3"/>
<path d="M78.3125 233.478C78.3125 233.478 78.3468 233.593 78.4384 233.69C78.5299 233.787 78.6271 233.844 78.65 233.827C78.6729 233.81 78.61 233.707 78.5184 233.61C78.4269 233.513 78.3297 233.455 78.3125 233.478Z" fill="#B3B3B3"/>
<path d="M77.3512 233.083C77.3512 233.112 77.4771 233.112 77.6144 233.164C77.7517 233.215 77.8432 233.284 77.8661 233.261C77.889 233.238 77.8146 233.118 77.6487 233.061C77.4828 233.003 77.3455 233.055 77.3512 233.083Z" fill="#B3B3B3"/>
<path d="M76.6646 232.895C76.6646 232.895 76.7046 232.975 76.779 233.003C76.8533 233.032 76.922 233.003 76.9334 233.003C76.9449 233.003 76.8934 232.929 76.819 232.9C76.7446 232.872 76.6646 232.866 76.6646 232.895Z" fill="#B3B3B3"/>
<path d="M71.6878 85.4517C71.7564 84.0272 71.9109 82.414 71.9109 82.414C71.9109 82.414 75.4349 82.0307 75.6466 78.4094C75.8582 74.7881 75.6466 66.3957 75.6466 66.3957L69.2278 63.1062L62.1626 68.6783L63.2324 86.8877L69.7313 87.2995C69.9819 87.3103 70.2322 87.2706 70.4673 87.183C70.7024 87.0953 70.9175 86.9613 71.0999 86.789C71.2823 86.6168 71.4284 86.4096 71.5293 86.1799C71.6303 85.9502 71.6842 85.7026 71.6878 85.4517Z" fill="#FAFAFA"/>
<path d="M72.3226 75.509C72.3226 75.509 72.3226 75.5719 72.2654 75.6635C72.2172 75.7223 72.1558 75.769 72.0863 75.7998C72.0167 75.8306 71.9409 75.8446 71.8649 75.8408C71.453 75.8408 71.0583 75.3717 70.9153 74.8168C70.8499 74.5519 70.8499 74.2751 70.9153 74.0102C70.9231 73.8895 70.9627 73.773 71.03 73.6726C71.0973 73.5721 71.19 73.4912 71.2986 73.4381C71.341 73.4197 71.3868 73.4102 71.433 73.4102C71.4793 73.4102 71.525 73.4197 71.5675 73.4381C71.6327 73.4672 71.684 73.5205 71.7105 73.5868C71.762 73.6898 71.7105 73.7584 71.7105 73.7527C71.7105 73.747 71.7105 73.6898 71.6418 73.6269C71.6092 73.5793 71.5599 73.5459 71.5037 73.5332C71.4475 73.5204 71.3885 73.5294 71.3386 73.5582C71.2623 73.6084 71.1991 73.6762 71.1543 73.7558C71.1095 73.8354 71.0844 73.9246 71.0812 74.0159C71.0368 74.2553 71.0466 74.5016 71.1098 74.7367C71.2356 75.2344 71.5789 75.6349 71.8821 75.6749C71.9429 75.6829 72.0047 75.6783 72.0637 75.6616C72.1227 75.6449 72.1777 75.6163 72.2254 75.5777C72.2883 75.5548 72.3112 75.5033 72.3226 75.509Z" fill="#EBEBEB"/>
<path d="M72.2997 77.7574C72.3454 77.6258 72.374 77.4828 72.4141 77.3455C72.4541 77.2082 72.4656 77.151 72.4999 77.048C72.5611 76.7486 72.5937 76.444 72.5971 76.1384C72.2838 76.2599 71.9416 76.2868 71.6131 76.2156C71.2846 76.1444 70.9843 75.9783 70.7493 75.738C70.5127 75.4874 70.3475 75.178 70.2711 74.8419C70.1946 74.5059 70.2096 74.1555 70.3145 73.8272C70.4649 73.4676 70.6893 73.1436 70.9732 72.8765C71.257 72.6094 71.594 72.405 71.9621 72.2769C72.6715 71.9794 73.4324 71.8306 74.1303 71.4988C75.6063 70.8009 76.6246 69.3421 77.3225 67.8146C77.8088 66.7448 78.1749 65.5263 77.8431 64.3821C77.3512 62.7059 75.5548 61.8764 73.9473 61.413C71.4759 60.7151 68.7985 60.4062 66.3843 61.2929C63.9702 62.1796 61.0697 63.7471 61.0697 66.413C59.6452 66.2929 58.8329 67.5572 58.2665 69.0904C57.9878 70.0506 57.7775 71.0294 57.6372 72.0194" fill="#B3B3B3"/>
<path d="M63.0148 83.1292C61.2338 81.9005 59.8017 80.2312 58.8582 78.2841C57.9147 76.337 57.4921 74.1785 57.6315 72.0193C57.9976 64.3763 72.2997 77.7402 72.2997 77.7402C72.2997 77.7402 69.5594 86.7447 63.3065 83.112" fill="#B3B3B3"/>
<path d="M60.8924 75.5091C60.8524 75.4748 61.1384 75.2059 61.373 74.651C61.5332 74.2985 61.6174 73.9162 61.6204 73.529C61.6233 73.1418 61.5448 72.7583 61.39 72.4034C61.2352 72.0484 61.0075 71.73 60.7218 71.4687C60.436 71.2075 60.0985 71.0092 59.7311 70.8867C59.159 70.6808 58.77 70.7094 58.77 70.6579C59.1052 70.5546 59.4651 70.5647 59.794 70.6865C60.202 70.8014 60.5802 71.0037 60.9022 71.2793C61.2242 71.5549 61.4825 71.8972 61.659 72.2826C61.8261 72.6732 61.9041 73.0961 61.8872 73.5207C61.8704 73.9452 61.7592 74.3606 61.5618 74.7368C61.2586 75.3146 60.9096 75.532 60.8924 75.5091Z" fill="#B3B3B3"/>
<path d="M57.946 70.8295C57.8166 70.846 57.6854 70.8177 57.5742 70.7494C57.2529 70.5918 56.9888 70.3378 56.819 70.0228C56.5816 69.5512 56.4957 69.0177 56.573 68.4954C56.6396 67.8639 56.8342 67.2527 57.1451 66.699C57.4629 66.1318 57.9628 65.6884 58.5639 65.4405C59.0626 65.237 59.6212 65.237 60.1199 65.4405C60.4497 65.5781 60.7293 65.8138 60.9208 66.1155C61.041 66.3329 61.0582 66.4759 61.041 66.4759C60.8081 66.095 60.4563 65.8015 60.0398 65.6407C59.5909 65.4855 59.0997 65.508 58.6668 65.7036C58.1324 65.9377 57.6887 66.3393 57.4025 66.8478C56.7904 67.9405 56.6188 69.1933 56.9906 69.9199C57.195 70.3239 57.5324 70.6452 57.946 70.8295Z" fill="#B3B3B3"/>
<path d="M122.906 73.4038C122.649 73.1406 122.019 73.2665 122.019 73.2665C122.08 72.899 122.08 72.5241 122.019 72.1566C121.905 71.7962 121.098 71.8649 121.098 71.8649C121.06 71.5629 121.06 71.2573 121.098 70.9553C121.103 70.8891 121.087 70.8233 121.053 70.7662C121.019 70.7091 120.969 70.6633 120.91 70.6349C120.528 70.4806 120.119 70.4066 119.708 70.4175C119.211 70.0628 121.207 67.2711 121.951 66.3786C122.695 65.4862 122.557 64.7939 121.899 64.7939C121.447 64.7939 119.119 67.477 118.404 68.3752C117.689 69.2734 115.789 71.7791 115.727 69.7825C115.664 67.7859 114.857 66.2699 114.354 66.0125C113.85 65.755 113.312 66.3615 113.593 66.9164C113.831 67.5467 113.981 68.2071 114.039 68.8786C114.103 69.4187 114.078 69.9657 113.965 70.4976C113.756 71.4726 113.469 72.4292 113.106 73.358L113.055 73.3294C113.055 73.3294 99.1133 86.699 98.1064 87.6315C97.2025 88.4896 79.0847 86.6132 75.4577 86.2299C74.2204 86.0538 72.9718 85.9697 71.722 85.9781C70.1488 86.0468 69.8685 86.2699 68.2895 86.2871C64.5404 86.2998 60.7985 86.6136 57.0996 87.2253C53.4783 87.8374 51.4875 90.6578 50.3719 94.1646C46.7049 105.606 36.7964 132.494 35.3147 147.712C34.2101 149.717 33.2114 151.78 32.3227 153.89C31.2987 156.688 31.5504 156.785 31.8937 156.848C32.8204 157.019 33.8845 152.002 34.285 153.209C34.6854 154.416 32.2712 159.199 33.2495 159.336C34.5195 159.519 35.5378 154.245 35.658 153.804C35.7781 153.364 36.4188 153.524 36.2872 153.913C36.1042 154.485 34.3078 160.435 35.555 160.629C36.2472 160.732 36.3216 159.485 36.3216 159.485C36.3216 159.485 37.5916 153.764 38.1808 153.896C38.7701 154.027 38.1465 157.38 37.849 158.501C37.5516 159.622 37.9692 160.217 38.5641 159.92C38.976 159.731 39.9543 156.316 40.2232 155.2C40.4921 154.085 41.1557 151.012 42.0596 152.797C42.9634 154.582 44.3479 155.612 44.92 155.658C45.0517 155.652 45.1781 155.604 45.2812 155.522C45.3842 155.44 45.4586 155.327 45.4935 155.2C45.5285 155.073 45.5223 154.938 45.4757 154.815C45.4292 154.691 45.3448 154.586 45.2346 154.514C44.7506 154.042 44.3347 153.504 43.9989 152.917C43.7114 152.456 43.5026 151.949 43.3811 151.419C43.1277 150.358 42.9801 149.276 42.9406 148.186L42.8319 147.528C44.2621 140.446 49.1248 116.304 55.0344 103.02L56.7506 111.396L57.809 115.109L51.3044 131.184L79.0332 130.818L74.8971 114.891L79.9199 98.3008C85.3604 98.4209 99.3193 98.6269 101.659 97.5743C104.582 96.2699 119.725 77.1852 119.725 77.1852C120.722 76.4193 121.677 75.6 122.586 74.731C122.586 74.731 123.461 73.9759 122.906 73.4038Z" fill="#FAFAFA"/>
<path d="M50.0974 119.365C50.8983 116.619 55.0287 103.038 55.0287 103.038C55.0287 103.038 57.0596 114.108 56.5276 115.441C56.0358 116.584 55.4523 117.686 54.7827 118.736C50.0974 125.875 50.7095 129.445 50.7095 129.445L79.0333 128.581C79.1019 124.622 76.7449 115.423 76.2644 113.942C75.7838 112.46 77.4086 107.649 77.4086 107.649C77.4086 107.649 80.6122 104.399 80.4864 102.729C80.4196 101.228 80.2283 99.7357 79.9143 98.2667L100.893 98.6671L98.547 87.2655L78.3182 85.7838L71.5905 85.1545C68.2038 88.015 63.1294 85.1545 63.1294 85.1545C56.6763 85.7838 55.7324 86.8193 53.0836 89.468C49.9372 92.6031 41.436 116.59 41.436 116.59L50.0974 119.365Z" fill="#B3B3B3"/>
<path d="M66.8476 116.602C66.3548 116.688 65.8533 116.712 65.3545 116.676C64.4277 116.676 63.1577 116.613 61.7561 116.476C60.3545 116.338 59.0959 116.133 58.192 115.955C57.6957 115.893 57.2093 115.768 56.7446 115.583C57.2421 115.581 57.7385 115.629 58.2263 115.726C59.1417 115.841 60.3945 116.001 61.7904 116.144C63.1863 116.287 64.4449 116.379 65.3602 116.441C65.8602 116.444 66.3586 116.498 66.8476 116.602Z" fill="#B3B3B3"/>
<path d="M68.7815 114.193C68.2908 114.433 67.7718 114.61 67.2369 114.719C65.9648 115.056 64.6706 115.303 63.3639 115.457C62.0581 115.614 60.7427 115.677 59.4279 115.646C58.8823 115.662 58.3368 115.613 57.8032 115.497C58.3412 115.421 58.8849 115.392 59.4279 115.412C60.4291 115.377 61.8078 115.309 63.3295 115.126C64.8513 114.943 66.1899 114.697 67.1854 114.491C67.7075 114.344 68.2417 114.245 68.7815 114.193Z" fill="#B3B3B3"/>
<path d="M78.3124 103.45C78.3062 103.936 78.2408 104.42 78.1179 104.891C77.952 105.778 77.6946 106.991 77.3685 108.324C77.0424 109.657 76.7106 110.852 76.4474 111.716C76.3376 112.191 76.1705 112.65 75.9497 113.084C75.9843 112.598 76.0745 112.118 76.2186 111.653C76.4589 110.658 76.7392 109.514 77.0424 108.249C77.3456 106.985 77.6431 105.841 77.8891 104.817C77.9785 104.347 78.1205 103.888 78.3124 103.45Z" fill="#B3B3B3"/>
<path d="M50.5207 129.639L78.8387 128.776L91.1614 176.899L88.873 232.099H73.8845L75.7552 178.095L64.7998 144.571L66.4646 232.671L51.3273 232.895L49.777 150.177C49.714 147.837 48.9417 142.551 49.2049 140.229L50.5207 129.639Z" fill="#808080"/>
<path d="M68.5757 145.251C68.1108 145.284 67.6436 145.257 67.1855 145.171C66.3331 145.068 65.1604 144.891 63.8789 144.634C62.5974 144.376 61.4418 144.062 60.618 143.85C60.1615 143.752 59.7193 143.596 59.3022 143.386C59.3022 143.295 61.3846 143.793 63.9418 144.307C66.499 144.822 68.5871 145.154 68.5757 145.251Z" fill="#B3B3B3"/>
<path d="M88.7527 229.073C88.7527 229.165 85.3602 229.239 81.1726 229.239C76.9849 229.239 74.0044 229.107 74.0044 229.016C74.0044 228.924 76.9849 228.907 81.1726 228.907C85.3602 228.907 88.7527 229.01 88.7527 229.073Z" fill="#B3B3B3"/>
<path d="M66.2527 229.239C66.2527 229.33 62.9575 229.405 58.8957 229.405C54.8339 229.405 51.5444 229.33 51.5444 229.239C51.5444 229.147 54.8339 229.073 58.8957 229.073C62.9575 229.073 66.2527 229.147 66.2527 229.239Z" fill="#B3B3B3"/>
<path d="M64.405 229.239C64.3135 229.239 63.913 210.194 63.5125 186.699C63.1121 163.204 62.8661 144.159 62.9405 144.153C63.0148 144.148 63.4496 163.221 63.8501 186.676C64.2505 210.132 64.4965 229.233 64.405 229.239Z" fill="#B3B3B3"/>
<path d="M86.7389 229.073C86.7327 228.985 86.7327 228.898 86.7389 228.81C86.7389 228.621 86.7389 228.369 86.7389 228.043C86.7389 227.357 86.7847 226.367 86.8247 225.103C86.9106 222.534 87.0421 218.844 87.1966 214.29C87.5456 205.137 88.0318 192.551 88.5639 178.615C88.5639 178.484 88.5639 178.358 88.5639 178.238V178.284C85.2058 164.845 82.1737 152.694 79.9827 143.884L77.4369 133.472C77.1451 132.254 76.9163 131.304 76.7618 130.612C76.6894 130.303 76.6322 130.057 76.5902 129.874C76.5687 129.791 76.5534 129.707 76.5444 129.622C76.5807 129.701 76.6076 129.783 76.6245 129.868C76.6703 130.046 76.7389 130.286 76.8248 130.595C76.9964 131.258 77.2481 132.208 77.5627 133.421C78.1978 135.887 79.1074 139.434 80.2286 143.81C82.454 152.614 85.5204 164.754 88.9186 178.186V178.238C88.9186 178.352 88.9186 178.484 88.9186 178.61C88.3465 192.534 87.8316 205.137 87.454 214.279C87.2538 218.856 87.0879 222.523 86.9735 225.091C86.9106 226.356 86.8591 227.34 86.8247 228.032C86.8247 228.352 86.7904 228.604 86.779 228.793C86.7752 228.887 86.7618 228.981 86.7389 229.073Z" fill="#B3B3B3"/>
<path d="M81.8538 177.116C80.7762 177.469 79.6669 177.716 78.5415 177.854C77.1685 178.089 75.9785 178.249 75.4579 178.283V178.152C75.6296 178.198 75.7211 178.238 75.7154 178.261C75.7097 178.284 75.6124 178.261 75.4351 178.261H75.0518L75.4351 178.146C75.9328 177.997 77.1113 177.757 78.49 177.517C79.5955 177.274 80.7221 177.14 81.8538 177.116Z" fill="#B3B3B3"/>
<path d="M81.5673 178.953C80.5717 178.993 79.5745 178.947 78.5868 178.816C77.5897 178.79 76.5965 178.681 75.6177 178.49C76.6123 178.353 77.6208 178.353 78.6154 178.49C79.6159 178.509 80.6091 178.665 81.5673 178.953Z" fill="#B3B3B3"/>
<path d="M50.395 130.652C51.0758 131.619 52.0541 131.956 53.1868 132.139C54.3285 132.275 55.4834 132.254 56.6193 132.077C63.9305 131.264 71.6765 130.515 78.8332 128.776C69.5655 129.291 59.7829 129.119 50.5152 129.639C50.5152 129.639 50.4351 130.274 50.4179 130.429" fill="#B3B3B3"/>
<path d="M59.9487 143.718L65.1661 163.987L64.8 144.571L59.9487 143.718Z" fill="#B3B3B3"/>
<path d="M58.896 71.0641C56.8823 70.5263 54.777 72.6716 54.7084 74.754C54.7084 75.3261 54.7713 76.0355 54.3479 76.4702C53.9246 76.905 53.1695 76.7849 52.5344 76.8364C51.8858 76.901 51.2788 77.1852 50.8137 77.6419C50.3487 78.0986 50.0536 78.7005 49.9772 79.3478C49.8857 80.2746 50.2576 81.27 49.8685 82.1167C49.4795 82.9634 48.5814 83.3066 47.9578 83.9359C47.5795 84.3642 47.2949 84.8669 47.1225 85.4118C46.9501 85.9566 46.8936 86.5315 46.9566 87.0995C47.092 88.2349 47.3906 89.3447 47.8434 90.3947C48.2095 91.373 48.6901 92.4599 49.674 92.8089H58.1351L58.7701 89.6167L59.8056 92.8089H61.1843L60.4406 72.0824C60.4406 72.0824 60.4349 71.4702 58.896 71.0641Z" fill="#B3B3B3"/>
<path d="M47.3227 80.961C47.3227 80.961 47.2311 80.961 47.0938 81.0068C46.9955 81.0604 46.9206 81.1486 46.8836 81.2543C46.8466 81.36 46.8502 81.4757 46.8936 81.5789C46.9998 81.8125 47.1912 81.9967 47.4286 82.094C47.6661 82.1912 47.9317 82.1941 48.1713 82.1021C48.4108 82.0101 48.6062 81.8301 48.7175 81.5989C48.8288 81.3677 48.8476 81.1027 48.7701 80.8581C48.6494 80.5836 48.4936 80.3259 48.3067 80.0915C47.8732 79.5135 47.686 78.7875 47.7861 78.072C47.8373 77.6754 47.9796 77.2959 48.202 76.9634C48.4243 76.631 48.7205 76.3544 49.0675 76.1555C49.4389 75.9381 49.8565 75.8118 50.286 75.787C50.7156 75.7621 51.145 75.8394 51.5389 76.0125C52.317 76.3501 52.992 76.8478 53.7414 76.7448C53.9104 76.7381 54.0749 76.6891 54.2199 76.6021C54.3649 76.5151 54.4856 76.393 54.571 76.2471C54.6915 75.922 54.7307 75.5725 54.6854 75.2288C54.6402 74.5723 54.7358 73.9137 54.9657 73.2971C55.1956 72.6804 55.5544 72.12 56.0183 71.6533C56.6715 71.0414 57.5377 70.7089 58.4325 70.7265C58.6697 70.7332 58.9047 70.7737 59.1305 70.8466C59.2116 70.8663 59.2889 70.8991 59.3593 70.9439C59.0535 70.8856 58.7436 70.8512 58.4325 70.8409C57.5746 70.8606 56.7563 71.2063 56.1442 71.8077C55.7116 72.2619 55.3804 72.8027 55.1723 73.3944C54.9642 73.9861 54.8841 74.6153 54.9371 75.2402C54.9882 75.6271 54.9409 76.0206 54.7998 76.3844C54.6944 76.5742 54.5426 76.7342 54.3585 76.8493C54.1743 76.9644 53.964 77.0308 53.7472 77.0423C53.3232 77.0828 52.8962 77.0077 52.5115 76.8249C52.1224 76.659 51.7678 76.4473 51.4016 76.2929C51.0498 76.1387 50.6667 76.0692 50.2832 76.0901C49.8997 76.111 49.5264 76.2216 49.1934 76.413C48.8834 76.5916 48.6188 76.8394 48.4203 77.1371C48.2219 77.4348 48.0949 77.7744 48.0492 78.1292C47.9509 78.7815 48.1155 79.4461 48.5069 79.9771C48.7023 80.2306 48.862 80.5097 48.9817 80.8066C49.0356 80.9545 49.0593 81.1117 49.0515 81.2689C49.0436 81.4261 49.0043 81.5801 48.936 81.7219C48.8175 81.9733 48.6152 82.1756 48.3639 82.294C48.134 82.3963 47.8774 82.4224 47.6316 82.3684C47.4359 82.3311 47.2541 82.2411 47.1059 82.108C46.9577 81.9749 46.8487 81.8038 46.7906 81.6132C46.7487 81.4908 46.755 81.3571 46.8081 81.2392C46.8612 81.1212 46.9573 81.0279 47.0767 80.9782C47.2426 80.8981 47.3284 80.961 47.3227 80.961Z" fill="#B3B3B3"/>
<path d="M80.0972 98.0835C79.8808 98.1135 79.6613 98.1135 79.445 98.0835C78.8497 98.0116 78.2701 97.8435 77.7287 97.5858C76.9213 97.207 76.2007 96.6655 75.612 95.9954C74.8647 95.1837 74.3611 94.178 74.1587 93.0935C73.9564 92.0089 74.0635 90.8892 74.4679 89.8627C74.7806 89.0268 75.2637 88.265 75.8866 87.6258C76.2999 87.1924 76.781 86.8291 77.3111 86.5503C77.4988 86.4377 77.7036 86.3566 77.9175 86.3101C77.2258 86.7046 76.594 87.1958 76.0411 87.7689C75.463 88.4037 75.0159 89.1463 74.7253 89.9542C74.3486 90.9348 74.2492 92.0001 74.4379 93.0335C74.6266 94.0668 75.0962 95.0282 75.7951 95.8123C76.354 96.4649 77.0339 97.003 77.7974 97.397C78.5295 97.7285 79.3031 97.9595 80.0972 98.0835Z" fill="#B3B3B3"/>
</svg>
