<svg width="24" height="24" viewBox="0 0 24 24" fill="none" xmlns="http://www.w3.org/2000/svg">
<path fill-rule="evenodd" clip-rule="evenodd" d="M4 8C4 7.44772 4.44772 7 5 7C5.55228 7 6 7.44772 6 8V17C6 19.8477 8.15228 22 11 22C13.8477 22 16 19.8477 16 17V5C16 3.35228 14.6477 2 13 2C11.3523 2 10 3.35228 10 5V17C10 17.6477 10.3523 18 11 18C11.6477 18 12 17.6477 12 17V8C12 7.44772 12.4477 7 13 7C13.5523 7 14 7.44772 14 8V17C14 18.7523 12.7523 20 11 20C9.24771 20 8 18.7523 8 17V5C8 2.24772 10.2477 0 13 0C15.7523 0 18 2.24772 18 5V17C18 20.9523 14.9523 24 11 24C7.04772 24 4 20.9523 4 17V8Z" fill="#2F3941"/>
</svg>
